<svg width="622" height="262" viewBox="0 0 622 262" fill="none" xmlns="http://www.w3.org/2000/svg">
<path d="M232.002 50.3594H254.927V123.968C254.927 131.097 253.34 137.249 250.166 142.425C247.041 147.552 242.744 151.507 237.275 154.29C231.855 157.073 225.752 158.465 218.965 158.465C211.982 158.465 205.757 157.293 200.288 154.949C194.868 152.557 190.596 148.919 187.471 144.036C184.395 139.104 182.856 132.854 182.856 125.286H206.001C206.001 130.853 207.148 134.686 209.443 136.785C211.787 138.885 214.961 139.935 218.965 139.935C222.969 139.935 226.143 138.543 228.486 135.76C230.83 132.977 232.002 129.046 232.002 123.968V50.3594ZM273.091 157V50.3594H306.27C315.889 50.3594 324.36 52.5078 331.685 56.8047C339.058 61.1016 344.819 67.083 348.97 74.749C353.12 82.415 355.195 91.3018 355.195 101.409V105.95C355.195 116.106 353.12 125.018 348.97 132.684C344.868 140.35 339.131 146.331 331.758 150.628C324.385 154.876 315.84 157 306.123 157H273.091ZM306.27 68.9629H296.162V138.47H306.123C314.57 138.47 320.967 135.687 325.312 130.12C329.707 124.554 331.904 116.497 331.904 105.95V101.263C331.904 90.667 329.707 82.6348 325.312 77.166C320.967 71.6973 314.619 68.9629 306.27 68.9629ZM406.245 158.465C397.896 158.465 390.742 156.731 384.785 153.265C378.877 149.798 374.336 145.159 371.162 139.349C368.037 133.538 366.475 127.117 366.475 120.086V117.229C366.475 109.319 367.964 102.288 370.942 96.1357C373.97 89.9834 378.267 85.1494 383.833 81.6338C389.399 78.0693 396.04 76.2871 403.755 76.2871C415.229 76.2871 423.97 79.8516 429.976 86.9805C435.981 94.0605 438.984 103.484 438.984 115.252V124.627H388.96C389.741 129.461 391.743 133.343 394.966 136.272C398.237 139.153 402.461 140.594 407.637 140.594C411.396 140.594 414.888 139.91 418.11 138.543C421.382 137.127 424.189 134.93 426.533 131.951L437.227 144.183C434.736 147.747 430.879 151.019 425.654 153.997C420.43 156.976 413.96 158.465 406.245 158.465ZM403.608 94.085C399.263 94.085 395.942 95.5498 393.647 98.4795C391.353 101.36 389.839 105.12 389.106 109.759H417.231V108.001C417.183 103.948 416.06 100.628 413.862 98.04C411.714 95.4033 408.296 94.085 403.608 94.085ZM472.163 157H450.044V77.752H470.845L471.577 86.7607C477.192 79.7783 484.736 76.2871 494.209 76.2871C499.189 76.2871 503.56 77.2637 507.319 79.2168C511.079 81.1211 514.009 84.2949 516.108 88.7383C518.208 93.1816 519.258 99.1875 519.258 106.756V157H497.065V106.609C497.065 101.727 496.016 98.4551 493.916 96.7949C491.816 95.0859 488.789 94.2314 484.834 94.2314C481.904 94.2314 479.39 94.8418 477.29 96.0625C475.19 97.2832 473.481 98.9678 472.163 101.116V157ZM574.409 93.8652H561.006V132.244C561.006 135.467 561.641 137.615 562.91 138.689C564.229 139.764 566.279 140.301 569.062 140.301C570.381 140.301 571.553 140.252 572.578 140.154C573.604 140.057 574.482 139.935 575.215 139.788L575.142 156.487C573.335 157.073 571.357 157.537 569.209 157.879C567.109 158.27 564.741 158.465 562.104 158.465C554.976 158.465 549.312 156.634 545.112 152.972C540.962 149.31 538.887 143.23 538.887 134.734V93.8652H527.607V77.752H538.887V58.1963H561.006V77.752H574.409V93.8652Z" fill="white"/>
<path d="M358.301 199V170.562H366.328C368.828 170.562 371.016 171.109 372.891 172.203C374.779 173.284 376.25 174.827 377.305 176.832C378.359 178.824 378.887 181.188 378.887 183.922V185.641C378.887 188.388 378.359 190.758 377.305 192.75C376.25 194.742 374.759 196.285 372.832 197.379C370.905 198.46 368.626 199 365.996 199H358.301ZM366.328 173.629H362.09V195.953H365.996C369.03 195.953 371.309 195.016 372.832 193.141C374.368 191.266 375.137 188.766 375.137 185.641V183.883C375.137 180.628 374.368 178.108 372.832 176.324C371.309 174.527 369.141 173.629 366.328 173.629ZM392.773 199.391C390.807 199.391 389.095 198.954 387.637 198.082C386.191 197.197 385.065 195.986 384.258 194.449C383.464 192.913 383.066 191.155 383.066 189.176V188.336C383.066 186.044 383.503 184.091 384.375 182.477C385.26 180.849 386.406 179.612 387.812 178.766C389.232 177.906 390.729 177.477 392.305 177.477C394.336 177.477 395.99 177.932 397.266 178.844C398.555 179.742 399.499 180.973 400.098 182.535C400.71 184.085 401.016 185.842 401.016 187.809V189.43H386.719C386.758 190.732 387.025 191.917 387.52 192.984C388.027 194.039 388.743 194.885 389.668 195.523C390.592 196.148 391.693 196.461 392.969 196.461C394.245 196.461 395.326 196.201 396.211 195.68C397.096 195.159 397.871 194.462 398.535 193.59L400.742 195.309C400.065 196.35 399.089 197.294 397.812 198.141C396.549 198.974 394.87 199.391 392.773 199.391ZM392.305 180.406C390.872 180.406 389.661 180.934 388.672 181.988C387.695 183.043 387.083 184.547 386.836 186.5H397.363V186.227C397.311 185.289 397.122 184.378 396.797 183.492C396.471 182.594 395.951 181.858 395.234 181.285C394.518 180.699 393.542 180.406 392.305 180.406ZM408.887 199H405.234V177.867H408.691L408.809 180.465C409.564 179.527 410.475 178.798 411.543 178.277C412.611 177.743 413.796 177.477 415.098 177.477C417.181 177.477 418.828 178.069 420.039 179.254C421.263 180.426 421.875 182.392 421.875 185.152V199H418.223V185.113C418.223 183.447 417.865 182.262 417.148 181.559C416.432 180.855 415.391 180.504 414.023 180.504C412.865 180.504 411.842 180.816 410.957 181.441C410.085 182.066 409.395 182.88 408.887 183.883V199ZM436.23 180.621H432.285V193.766C432.285 194.859 432.52 195.556 432.988 195.855C433.47 196.155 434.01 196.305 434.609 196.305C434.909 196.305 435.221 196.279 435.547 196.227C435.885 196.174 436.133 196.129 436.289 196.09L436.309 199C436.022 199.091 435.645 199.176 435.176 199.254C434.72 199.345 434.167 199.391 433.516 199.391C432.63 199.391 431.816 199.215 431.074 198.863C430.332 198.512 429.74 197.926 429.297 197.105C428.854 196.272 428.633 195.152 428.633 193.746V180.621H424.785V177.867H428.633V172.73H432.285V177.867H436.23V180.621ZM452.891 184.508C452.891 183.245 452.513 182.242 451.758 181.5C451.016 180.745 449.915 180.367 448.457 180.367C447.103 180.367 446.009 180.706 445.176 181.383C444.342 182.06 443.926 182.841 443.926 183.727H440.273C440.273 182.711 440.618 181.728 441.309 180.777C441.999 179.814 442.969 179.026 444.219 178.414C445.482 177.789 446.966 177.477 448.672 177.477C450.977 177.477 452.865 178.062 454.336 179.234C455.807 180.406 456.543 182.177 456.543 184.547V194.391C456.543 195.094 456.602 195.842 456.719 196.637C456.849 197.431 457.038 198.115 457.285 198.688V199H453.477C453.359 198.74 453.255 198.414 453.164 198.023C453.086 197.633 453.021 197.223 452.969 196.793C452.292 197.509 451.445 198.121 450.43 198.629C449.427 199.137 448.275 199.391 446.973 199.391C445.54 199.391 444.284 199.117 443.203 198.57C442.135 198.01 441.302 197.255 440.703 196.305C440.117 195.354 439.824 194.299 439.824 193.141C439.824 190.862 440.684 189.137 442.402 187.965C444.121 186.78 446.432 186.188 449.336 186.188H452.891V184.508ZM447.5 196.266C448.802 196.266 449.928 195.94 450.879 195.289C451.829 194.625 452.5 193.889 452.891 193.082V188.727H449.922C447.865 188.727 446.276 189.052 445.156 189.703C444.036 190.354 443.477 191.331 443.477 192.633C443.477 193.648 443.815 194.508 444.492 195.211C445.182 195.914 446.185 196.266 447.5 196.266ZM466.191 199H462.539V169H466.191V199ZM503.379 189.977C503.184 191.76 502.669 193.368 501.836 194.801C501.003 196.22 499.824 197.34 498.301 198.16C496.777 198.98 494.87 199.391 492.578 199.391C490.352 199.391 488.405 198.85 486.738 197.77C485.072 196.676 483.776 195.139 482.852 193.16C481.927 191.181 481.465 188.87 481.465 186.227V183.355C481.465 180.699 481.927 178.388 482.852 176.422C483.789 174.443 485.117 172.906 486.836 171.812C488.555 170.719 490.586 170.172 492.93 170.172C496.159 170.172 498.633 171.057 500.352 172.828C502.083 174.586 503.092 176.871 503.379 179.684H499.59C499.303 177.691 498.665 176.122 497.676 174.977C496.699 173.818 495.117 173.238 492.93 173.238C490.417 173.238 488.509 174.163 487.207 176.012C485.918 177.861 485.273 180.296 485.273 183.316V186.227C485.273 188.089 485.534 189.788 486.055 191.324C486.576 192.848 487.37 194.065 488.438 194.977C489.518 195.888 490.898 196.344 492.578 196.344C494.18 196.344 495.449 196.09 496.387 195.582C497.337 195.074 498.053 194.345 498.535 193.395C499.03 192.444 499.382 191.305 499.59 189.977H503.379ZM511.895 199H508.242V169H511.895V199ZM517.695 172.242C517.695 171.669 517.871 171.181 518.223 170.777C518.587 170.374 519.121 170.172 519.824 170.172C520.527 170.172 521.061 170.374 521.426 170.777C521.803 171.181 521.992 171.669 521.992 172.242C521.992 172.802 521.803 173.284 521.426 173.688C521.061 174.078 520.527 174.273 519.824 174.273C519.121 174.273 518.587 174.078 518.223 173.688C517.871 173.284 517.695 172.802 517.695 172.242ZM521.621 199H517.969V177.867H521.621V199ZM531.035 199H527.383V177.867H530.84L530.957 180.465C531.712 179.527 532.624 178.798 533.691 178.277C534.759 177.743 535.944 177.477 537.246 177.477C539.329 177.477 540.977 178.069 542.188 179.254C543.411 180.426 544.023 182.392 544.023 185.152V199H540.371V185.113C540.371 183.447 540.013 182.262 539.297 181.559C538.581 180.855 537.539 180.504 536.172 180.504C535.013 180.504 533.991 180.816 533.105 181.441C532.233 182.066 531.543 182.88 531.035 183.883V199ZM549.531 172.242C549.531 171.669 549.707 171.181 550.059 170.777C550.423 170.374 550.957 170.172 551.66 170.172C552.363 170.172 552.897 170.374 553.262 170.777C553.639 171.181 553.828 171.669 553.828 172.242C553.828 172.802 553.639 173.284 553.262 173.688C552.897 174.078 552.363 174.273 551.66 174.273C550.957 174.273 550.423 174.078 550.059 173.688C549.707 173.284 549.531 172.802 549.531 172.242ZM553.457 199H549.805V177.867H553.457V199ZM567.695 196.461C568.984 196.461 570.111 196.07 571.074 195.289C572.038 194.508 572.572 193.518 572.676 192.32H576.133C576.068 193.57 575.645 194.736 574.863 195.816C574.082 196.884 573.066 197.75 571.816 198.414C570.566 199.065 569.193 199.391 567.695 199.391C565.573 199.391 563.815 198.909 562.422 197.945C561.029 196.969 559.987 195.68 559.297 194.078C558.62 192.477 558.281 190.732 558.281 188.844V188.023C558.281 186.122 558.626 184.378 559.316 182.789C560.007 181.188 561.048 179.905 562.441 178.941C563.835 177.965 565.586 177.477 567.695 177.477C569.349 177.477 570.794 177.815 572.031 178.492C573.281 179.156 574.258 180.068 574.961 181.227C575.677 182.372 576.068 183.674 576.133 185.133H572.676C572.585 183.818 572.09 182.704 571.191 181.793C570.306 180.868 569.141 180.406 567.695 180.406C566.224 180.406 565.065 180.784 564.219 181.539C563.385 182.294 562.793 183.258 562.441 184.43C562.103 185.589 561.934 186.786 561.934 188.023V188.844C561.934 190.081 562.103 191.285 562.441 192.457C562.78 193.629 563.366 194.592 564.199 195.348C565.046 196.09 566.211 196.461 567.695 196.461Z" fill="white"/>
<path fill-rule="evenodd" clip-rule="evenodd" d="M84.2609 68.4507C88.9142 74.2172 98.0025 73.0991 101.116 66.377L122.6 20L152.436 79.4887L146.934 179.301L127.6 195.375L102.264 113.631C100.695 108.567 93.3588 109.109 92.5474 114.349L72.9657 240.796L48.3589 261.253L0 61.6274L47.5102 22.9087L84.2609 68.4507Z" fill="white"/>
</svg>
